<?xml version="1.0" encoding="UTF-8"?>
<svg id="Layer_2" data-name="Layer 2" xmlns="http://www.w3.org/2000/svg" viewBox="0 0 507.61 462.64">
  <defs>
    <style>
      .cls-1 {
        fill: #0b342c;
      }

      .cls-1, .cls-2, .cls-3, .cls-4, .cls-5, .cls-6, .cls-7, .cls-8 {
        stroke: #006045;
        stroke-miterlimit: 10;
        stroke-width: .25px;
      }

      .cls-2 {
        fill: #f87954;
      }

      .cls-3 {
        fill: #e8eef2;
      }

      .cls-4 {
        fill: #125145;
      }

      .cls-5 {
        fill: #07857a;
      }

      .cls-6 {
        fill: #292524;
      }

      .cls-7 {
        fill: #166556;
      }

      .cls-8 {
        fill: #008f6e;
      }
    </style>
  </defs>
  <g id="Layer_1-2" data-name="Layer 1">
    <polygon class="cls-7" points="112.28 387.48 105.35 407.64 105.35 428.9 112.28 408.74 112.28 387.48"/>
    <polygon class="cls-1" points="290.54 391.89 303.61 375.04 303.61 353.78 290.54 370.63 290.54 391.89"/>
    <polygon class="cls-6" points="206.92 366.54 189.13 378.19 189.13 399.45 206.92 387.8 206.92 366.54"/>
    <polygon class="cls-6" points="439.2 391.89 456.99 380.24 456.99 358.98 439.2 370.63 439.2 391.89"/>
    <polygon class="cls-7" points="112.28 387.48 112.28 408.74 132.91 403.54 132.91 382.28 112.28 387.48"/>
    <polygon class="cls-7" points="345.97 375.04 366.6 369.84 366.6 348.58 345.97 353.78 345.97 375.04"/>
    <polygon class="cls-4" points="3.15 365.59 .16 365.43 .16 386.69 3.15 386.85 3.15 365.59"/>
    <polygon class="cls-4" points="154.01 384.02 132.91 382.28 132.91 403.54 154.01 405.28 154.01 384.02"/>
    <polygon class="cls-4" points="345.97 375.04 345.97 353.78 324.87 352.05 324.87 373.31 345.97 375.04"/>
    <polygon class="cls-5" points="154.01 384.02 154.01 405.28 173.54 413.94 173.54 392.68 154.01 384.02"/>
    <polygon class="cls-5" points="379.67 386.69 399.2 395.2 399.2 373.94 379.67 365.43 379.67 386.69"/>
    <polygon class="cls-8" points="232.75 383.54 232.75 362.28 217.16 347.95 217.16 369.21 232.75 383.54"/>
    <polygon class="cls-3" points="74.17 390.63 74.17 411.89 84.25 430.63 84.25 409.37 74.17 390.63"/>
    <polygon class="cls-3" points="217.16 347.95 206.92 366.54 206.92 387.8 217.16 369.21 217.16 347.95"/>
    <polygon class="cls-8" points="189.13 378.19 173.54 392.68 173.54 413.94 189.13 399.45 189.13 378.19"/>
    <polygon class="cls-8" points="456.99 380.24 472.74 365.91 472.74 344.65 456.99 358.98 456.99 380.24"/>
    <polygon class="cls-5" points="232.75 383.54 252.28 375.04 252.28 353.78 232.75 362.28 232.75 383.54"/>
    <polygon class="cls-5" points="40.47 368.74 20.95 377.24 20.95 398.5 40.47 390 40.47 368.74"/>
    <polygon class="cls-5" points="399.2 395.2 418.57 386.69 418.57 365.43 399.2 373.94 399.2 395.2"/>
    <polygon class="cls-4" points="105.35 407.64 84.25 409.37 84.25 430.63 105.35 428.9 105.35 407.64"/>
    <polygon class="cls-4" points="303.61 375.04 324.87 373.31 324.87 352.05 303.61 353.78 303.61 375.04"/>
    <polygon class="cls-7" points="290.54 391.89 290.54 370.63 270.07 365.43 270.07 386.69 290.54 391.89"/>
    <polygon class="cls-7" points="61.1 373.94 40.47 368.74 40.47 390 61.1 395.2 61.1 373.94"/>
    <polygon class="cls-7" points="439.2 391.89 439.2 370.63 418.57 365.43 418.57 386.69 439.2 391.89"/>
    <polygon class="cls-6" points="252.28 375.04 270.07 386.69 270.07 365.43 252.28 353.78 252.28 375.04"/>
    <polygon class="cls-6" points="3.15 365.59 3.15 386.85 20.95 398.5 20.95 377.24 3.15 365.59"/>
    <polygon class="cls-6" points="490.54 377.4 490.54 356.14 472.74 344.65 472.74 365.91 490.54 377.4"/>
    <polygon class="cls-1" points="379.67 386.69 379.67 365.43 366.6 348.58 366.6 369.84 379.67 386.69"/>
    <polygon class="cls-1" points="74.17 390.63 61.1 373.94 61.1 395.2 74.17 411.89 74.17 390.63"/>
    <polygon class="cls-7" points="200.15 216.46 206.92 196.46 206.92 175.2 200.15 195.2 200.15 216.46"/>
    <polygon class="cls-1" points="272.75 177.09 285.82 160.4 285.82 139.14 272.75 155.83 272.75 177.09"/>
    <polygon class="cls-6" points="63.62 177.72 45.83 189.38 45.83 210.64 63.62 198.98 63.62 177.72"/>
    <polygon class="cls-6" points="285.82 160.4 303.61 148.75 303.61 127.49 285.82 139.14 285.82 160.4"/>
    <polygon class="cls-7" points="143.78 187.64 123.15 192.84 123.15 214.1 143.78 208.9 143.78 187.64"/>
    <polygon class="cls-7" points="337.94 163.71 358.57 158.51 358.57 137.25 337.94 142.45 337.94 163.71"/>
    <polygon class="cls-4" points="200.15 216.46 200.15 195.2 178.89 193.47 178.89 214.73 200.15 216.46"/>
    <polygon class="cls-5" points="26.3 180.87 26.3 202.13 45.83 210.64 45.83 189.38 26.3 180.87"/>
    <polygon class="cls-5" points="236.53 186.23 236.53 164.97 217.16 156.46 217.16 177.72 236.53 186.23"/>
    <polygon class="cls-8" points="143.78 187.64 143.78 208.9 159.37 223.39 159.37 202.13 143.78 187.64"/>
    <polygon class="cls-3" points="26.3 202.13 26.3 180.87 16.22 162.13 16.22 183.39 26.3 202.13"/>
    <polygon class="cls-3" points="206.92 196.46 217.16 177.72 217.16 156.46 206.92 175.2 206.92 196.46"/>
    <polygon class="cls-8" points="16.22 162.13 .63 176.62 .63 197.88 16.22 183.39 16.22 162.13"/>
    <polygon class="cls-8" points="236.53 186.23 252.28 171.9 252.28 150.64 236.53 164.97 236.53 186.23"/>
    <polygon class="cls-5" points="159.37 223.39 178.89 214.73 178.89 193.47 159.37 202.13 159.37 223.39"/>
    <polygon class="cls-5" points="358.57 158.51 377.94 150.01 377.94 128.75 358.57 137.25 358.57 158.51"/>
    <polygon class="cls-4" points="123.15 192.84 102.04 194.57 102.04 215.83 123.15 214.1 123.15 192.84"/>
    <polygon class="cls-4" points="324.87 147.02 324.87 125.76 303.61 127.49 303.61 148.75 324.87 147.02"/>
    <polygon class="cls-7" points="272.75 177.09 272.75 155.83 252.28 150.64 252.28 171.9 272.75 177.09"/>
    <polygon class="cls-7" points="63.62 177.72 63.62 198.98 84.25 204.34 84.25 183.08 63.62 177.72"/>
    <polygon class="cls-6" points="395.74 161.66 395.74 140.4 377.94 128.75 377.94 150.01 395.74 161.66"/>
    <polygon class="cls-6" points="84.25 183.08 84.25 204.34 102.04 215.83 102.04 194.57 84.25 183.08"/>
    <polygon class="cls-1" points="337.94 142.45 324.87 125.76 324.87 147.02 337.94 163.71 337.94 142.45"/>
    <polygon class="cls-1" points=".63 176.62 .16 176.15 .16 197.41 .63 197.88 .63 176.62"/>
    <polygon class="cls-7" points="286.61 413.94 293.53 393.78 280.46 410.63 273.53 430.63 286.61 413.94"/>
    <polygon class="cls-1" points="222.67 402.28 204.88 413.94 197.95 433.94 215.74 422.28 222.67 402.28"/>
    <polygon class="cls-6" points="132.91 403.54 112.28 408.74 105.35 428.9 125.98 423.7 132.91 403.54"/>
    <polygon class="cls-6" points="388.65 459.29 409.28 454.09 416.21 433.94 395.58 439.13 388.65 459.29"/>
    <polygon class="cls-7" points="132.91 403.54 125.98 423.7 147.24 425.43 154.01 405.28 132.91 403.54"/>
    <polygon class="cls-7" points="357.31 438.82 378.57 440.55 385.5 420.55 364.24 418.82 357.31 438.82"/>
    <polygon class="cls-4" points=".16 280.08 .16 291.11 3.47 281.5 .16 280.08"/>
    <polygon class="cls-4" points="173.54 413.94 154.01 405.28 147.24 425.43 166.61 433.94 173.54 413.94"/>
    <polygon class="cls-4" points="344.87 410.16 337.94 430.31 357.31 438.82 364.24 418.82 344.87 410.16"/>
    <polygon class="cls-5" points="19.21 295.99 3.47 281.5 .16 291.11 .16 304.96 12.28 315.99 19.21 295.99"/>
    <polygon class="cls-5" points="189.13 399.45 182.36 419.61 197.95 433.94 204.88 413.94 189.13 399.45"/>
    <polygon class="cls-8" points="80.94 370.63 74.17 390.63 84.25 409.37 91.18 389.37 80.94 370.63"/>
    <polygon class="cls-8" points="385.5 420.55 378.57 440.55 388.65 459.29 395.58 439.13 385.5 420.55"/>
    <polygon class="cls-3" points="57.48 312.68 50.71 332.84 54.17 353.78 61.1 333.78 57.48 312.68"/>
    <polygon class="cls-2" points="286.61 413.94 296.84 395.2 303.61 375.04 293.53 393.78 286.61 413.94"/>
    <polygon class="cls-3" points="189.13 399.45 173.54 413.94 166.61 433.94 182.36 419.61 189.13 399.45"/>
    <polygon class="cls-8" points="259.83 405.28 240.47 413.94 233.54 433.94 253.06 425.43 259.83 405.28"/>
    <polygon class="cls-5" points="91.18 389.37 84.25 409.37 105.35 407.64 112.28 387.48 91.18 389.37"/>
    <polygon class="cls-5" points="309.75 411.89 331.01 410.16 337.94 390.16 316.68 391.89 309.75 411.89"/>
    <polygon class="cls-4" points="253.06 425.43 273.53 430.63 280.46 410.63 259.83 405.28 253.06 425.43"/>
    <polygon class="cls-4" points="57.48 312.68 37.01 307.48 30.08 327.64 50.71 332.84 57.48 312.68"/>
    <polygon class="cls-7" points="222.67 402.28 215.74 422.28 233.54 433.94 240.47 413.94 222.67 402.28"/>
    <polygon class="cls-7" points="37.01 307.48 19.21 295.99 12.28 315.99 30.08 327.64 37.01 307.48"/>
    <polygon class="cls-6" points="309.75 411.89 316.68 391.89 303.61 375.04 296.84 395.2 309.75 411.89"/>
    <polygon class="cls-6" points="80.94 370.63 67.87 353.78 61.1 373.94 74.17 390.63 80.94 370.63"/>
    <polygon class="cls-1" points="337.94 430.31 344.87 410.16 337.94 390.16 331.01 410.16 337.94 430.31"/>
    <polygon class="cls-1" points="61.1 333.78 54.17 353.78 61.1 373.94 67.87 353.78 61.1 333.78"/>
    <polygon class="cls-7" points="408.49 251.74 421.56 234.89 428.49 214.73 415.42 231.58 408.49 251.74"/>
    <polygon class="cls-1" points="17.48 72.69 .16 83.87 .16 99.46 10.55 92.69 17.48 72.69"/>
    <polygon class="cls-1" points="328.49 237.25 346.29 225.75 353.22 205.6 335.42 217.25 328.49 237.25"/>
    <polygon class="cls-6" points="110.55 154.42 103.62 174.42 124.25 169.22 131.18 149.22 110.55 154.42"/>
    <polygon class="cls-6" points="328.49 237.25 335.42 217.25 314.79 222.45 307.86 242.6 328.49 237.25"/>
    <polygon class="cls-7" points="200.15 195.2 206.92 175.2 185.82 173.47 178.89 193.47 200.15 195.2"/>
    <polygon class="cls-7" points="421.56 234.89 442.66 236.62 449.59 216.46 428.49 214.73 421.56 234.89"/>
    <polygon class="cls-4" points="40.94 130.48 34.02 150.64 53.54 159.14 60.31 138.98 40.94 130.48"/>
    <polygon class="cls-4" points="219.52 225.12 226.45 204.97 206.92 196.46 200.15 216.46 219.52 225.12"/>
    <polygon class="cls-5" points="163.3 179.14 178.89 193.47 185.82 173.47 170.23 158.98 163.3 179.14"/>
    <polygon class="cls-5" points="361.88 240.08 368.81 219.93 353.22 205.6 346.29 225.75 361.88 240.08"/>
    <polygon class="cls-8" points="371.96 258.82 378.89 238.67 368.81 219.93 361.88 240.08 371.96 258.82"/>
    <polygon class="cls-8" points="80.94 144.18 74.17 164.34 84.25 183.08 91.18 162.92 80.94 144.18"/>
    <polygon class="cls-3" points="37.48 109.54 30.55 129.54 34.02 150.64 40.94 130.48 37.48 109.54"/>
    <polygon class="cls-2" points="378.89 278.82 388.96 260.24 395.89 240.08 385.81 258.82 378.89 278.82"/>
    <polygon class="cls-3" points="253.22 247.01 268.81 232.68 275.74 212.53 260.15 227.01 253.22 247.01"/>
    <polygon class="cls-8" points="110.55 154.42 91.18 162.92 84.25 183.08 103.62 174.42 110.55 154.42"/>
    <polygon class="cls-8" points="395.89 240.08 388.96 260.24 408.49 251.74 415.42 231.58 395.89 240.08"/>
    <polygon class="cls-5" points="152.44 147.33 131.18 149.22 124.25 169.22 145.51 167.49 152.44 147.33"/>
    <polygon class="cls-5" points="290.07 230.95 297 210.79 275.74 212.53 268.81 232.68 290.07 230.95"/>
    <polygon class="cls-4" points="247.08 210.16 226.45 204.97 219.52 225.12 240.15 230.32 247.08 210.16"/>
    <polygon class="cls-4" points="80.94 144.18 60.31 138.98 53.54 159.14 74.17 164.34 80.94 144.18"/>
    <polygon class="cls-7" points="307.86 242.6 314.79 222.45 297 210.79 290.07 230.95 307.86 242.6"/>
    <polygon class="cls-7" points="163.3 179.14 170.23 158.98 152.44 147.33 145.51 167.49 163.3 179.14"/>
    <polygon class="cls-6" points="253.22 247.01 260.15 227.01 247.08 210.16 240.15 230.32 253.22 247.01"/>
    <polygon class="cls-6" points="37.48 109.54 24.41 92.69 17.48 112.84 30.55 129.54 37.48 109.54"/>
    <polygon class="cls-1" points="378.89 238.67 371.96 258.82 378.89 278.82 385.81 258.82 378.89 238.67"/>
    <polygon class="cls-1" points="17.48 72.69 10.55 92.69 17.48 112.84 24.41 92.69 17.48 72.69"/>
    <polygon class="cls-1" points=".16 432.2 .16 445.59 13.23 428.9 .16 432.2"/>
    <polygon class="cls-3" points="84.25 430.63 64.72 439.13 51.65 455.98 71.18 447.48 84.25 430.63"/>
    <polygon class="cls-7" points="26.3 445.59 13.23 428.9 .16 445.59 13.23 462.44 26.3 445.59"/>
    <polygon class="cls-7" points="189.44 320.87 171.65 332.52 158.74 349.21 176.53 337.56 189.44 320.87"/>
    <polygon class="cls-1" points="161.57 313.78 140.94 318.98 127.87 335.83 148.5 330.47 161.57 313.78"/>
    <polygon class="cls-6" points=".16 197.88 .16 198.35 .63 197.88 .16 197.88"/>
    <polygon class="cls-6" points="189.44 320.87 176.53 337.56 197.63 339.29 210.7 322.6 189.44 320.87"/>
    <polygon class="cls-7" points="30.24 225.12 10.71 216.46 .16 230.01 .16 234.41 17.17 241.82 30.24 225.12"/>
    <polygon class="cls-7" points="210.7 322.6 197.63 339.29 217.16 347.95 230.23 331.1 210.7 322.6"/>
    <polygon class="cls-4" points="50.71 230.32 37.79 247.01 53.38 261.5 66.46 244.65 50.71 230.32"/>
    <polygon class="cls-4" points="252.28 353.78 265.35 336.93 249.6 322.6 236.53 339.29 252.28 353.78"/>
    <polygon class="cls-5" points="161.57 313.78 148.5 330.47 158.74 349.21 171.65 332.52 161.57 313.78"/>
    <polygon class="cls-5" points=".63 197.88 .16 198.35 .16 230.01 10.71 216.46 .63 197.88"/>
    <polygon class="cls-8" points="137.48 298.03 124.41 314.73 127.87 335.83 140.94 318.98 137.48 298.03"/>
    <polygon class="cls-3" points="83.31 279.61 96.38 262.92 99.84 241.97 86.77 258.67 83.31 279.61"/>
    <polygon class="cls-2" points="280.46 410.63 293.53 393.78 303.61 375.04 290.54 391.89 280.46 410.63"/>
    <polygon class="cls-2" points="99.84 241.97 84.25 256.3 71.18 273.15 86.77 258.67 99.84 241.97"/>
    <polygon class="cls-3" points="217.16 347.95 236.53 339.29 249.6 322.6 230.23 331.1 217.16 347.95"/>
    <polygon class="cls-8" points="117.48 261.19 96.38 262.92 83.31 279.61 104.41 277.88 117.48 261.19"/>
    <polygon class="cls-5" points="270.07 365.43 290.54 370.63 303.61 353.78 283.14 348.58 270.07 365.43"/>
    <polygon class="cls-5" points="50.71 230.32 30.24 225.12 17.17 241.82 37.79 247.01 50.71 230.32"/>
    <polygon class="cls-4" points="270.07 365.43 283.14 348.58 265.35 336.93 252.28 353.78 270.07 365.43"/>
    <polygon class="cls-4" points="84.25 256.3 66.46 244.65 53.38 261.5 71.18 273.15 84.25 256.3"/>
    <polygon class="cls-7" points="286.61 447.48 299.68 430.63 286.61 413.94 273.53 430.63 286.61 447.48"/>
    <polygon class="cls-7" points="137.48 298.03 124.41 281.18 111.34 298.03 124.41 314.73 137.48 298.03"/>
    <polygon class="cls-6" points="111.34 298.03 124.41 281.18 117.48 261.19 104.41 277.88 111.34 298.03"/>
    <polygon class="cls-7" points="316.68 165.44 298.89 177.09 285.82 193.94 303.61 182.29 316.68 165.44"/>
    <polygon class="cls-1" points="324.87 180.56 345.5 175.2 358.57 158.51 337.94 163.71 324.87 180.56"/>
    <polygon class="cls-6" points="195.9 112.84 217.16 114.58 230.23 97.73 208.97 95.99 195.9 112.84"/>
    <polygon class="cls-6" points="408.49 251.74 429.59 253.47 442.66 236.62 421.56 234.89 408.49 251.74"/>
    <polygon class="cls-7" points="252.28 150.64 265.35 133.79 245.82 125.28 232.75 142.13 252.28 150.64"/>
    <polygon class="cls-7" points="422.98 293.15 442.51 301.66 455.58 284.81 436.05 276.3 422.98 293.15"/>
    <polygon class="cls-4" points="208.97 95.99 193.38 81.66 180.31 98.36 195.9 112.84 208.97 95.99"/>
    <polygon class="cls-4" points="378.89 201.35 391.96 184.5 376.37 170.16 363.3 186.86 378.89 201.35"/>
    <polygon class="cls-5" points="388.96 219.93 402.03 203.23 391.96 184.5 378.89 201.35 388.96 219.93"/>
    <polygon class="cls-5" points="180.31 98.36 193.38 81.66 183.14 62.92 170.23 79.77 180.31 98.36"/>
    <polygon class="cls-8" points="436.05 276.3 432.58 255.36 419.51 272.05 422.98 293.15 436.05 276.3"/>
    <polygon class="cls-8" points="217.16 156.46 230.23 139.77 226.61 118.67 213.54 135.52 217.16 156.46"/>
    <polygon class="cls-3" points="213.54 135.52 226.61 118.67 230.23 97.73 217.16 114.58 213.54 135.52"/>
    <polygon class="cls-2" points="419.51 272.05 432.58 255.36 442.66 236.62 429.59 253.47 419.51 272.05"/>
    <polygon class="cls-2" points="217.16 156.46 232.75 142.13 245.82 125.28 230.23 139.77 217.16 156.46"/>
    <polygon class="cls-3" points="408.49 211.42 421.56 194.73 402.03 203.23 388.96 219.93 408.49 211.42"/>
    <polygon class="cls-8" points="303.61 182.29 324.87 180.56 337.94 163.71 316.68 165.44 303.61 182.29"/>
    <polygon class="cls-5" points="285.82 139.14 265.35 133.79 252.28 150.64 272.75 155.83 285.82 139.14"/>
    <polygon class="cls-5" points="463.13 306.85 476.21 290 455.58 284.81 442.51 301.66 463.13 306.85"/>
    <polygon class="cls-4" points="363.3 186.86 376.37 170.16 358.57 158.51 345.5 175.2 363.3 186.86"/>
    <polygon class="cls-4" points="176.37 42.77 158.58 31.27 145.51 47.96 163.3 59.62 176.37 42.77"/>
    <polygon class="cls-7" points="285.82 193.94 298.89 177.09 285.82 160.4 272.75 177.09 285.82 193.94"/>
    <polygon class="cls-7" points="158.58 31.27 145.51 14.42 132.44 31.27 145.51 47.96 158.58 31.27"/>
    <polygon class="cls-6" points="415.42 231.58 428.49 214.73 421.56 194.73 408.49 211.42 415.42 231.58"/>
    <polygon class="cls-6" points="170.23 79.77 183.14 62.92 176.37 42.77 163.3 59.62 170.23 79.77"/>
    <polygon class="cls-1" points=".16 386.69 .16 388.74 3.15 386.85 .16 386.69"/>
    <polygon class="cls-4" points="20.95 398.5 3.15 410.16 13.23 428.9 31.02 417.24 20.95 398.5"/>
    <polygon class="cls-8" points="64.72 439.13 44.09 433.94 26.3 445.59 46.93 450.79 64.72 439.13"/>
    <polygon class="cls-5" points="20.95 398.5 3.15 386.85 .16 388.74 .16 408.27 3.15 410.16 20.95 398.5"/>
    <polygon class="cls-4" points="31.02 417.24 13.23 428.9 26.3 445.59 44.09 433.94 31.02 417.24"/>
    <polygon class="cls-7" points="155.9 244.34 135.27 249.53 117.48 261.19 138.11 255.99 155.9 244.34"/>
    <polygon class="cls-1" points="20.95 51.59 .16 49.85 .16 63.08 3.15 63.24 20.95 51.59"/>
    <polygon class="cls-1" points="176.53 337.56 158.74 349.21 179.84 350.95 197.63 339.29 176.53 337.56"/>
    <polygon class="cls-6" points="53.54 159.14 34.02 150.64 16.22 162.13 35.75 170.79 53.54 159.14"/>
    <polygon class="cls-6" points="217.16 347.95 197.63 339.29 179.84 350.95 199.36 359.45 217.16 347.95"/>
    <polygon class="cls-7" points="102.04 215.83 84.25 227.49 99.84 241.97 117.63 230.32 102.04 215.83"/>
    <polygon class="cls-7" points="222.67 402.28 206.92 387.8 189.13 399.45 204.88 413.94 222.67 402.28"/>
    <polygon class="cls-4" points="189.44 320.87 179.36 302.13 161.57 313.78 171.65 332.52 189.44 320.87"/>
    <polygon class="cls-4" points="53.54 159.14 35.75 170.79 45.83 189.38 63.62 177.72 53.54 159.14"/>
    <polygon class="cls-5" points="179.36 302.13 175.9 281.18 158.11 292.84 161.57 313.78 179.36 302.13"/>
    <polygon class="cls-5" points="20.95 133.79 17.48 112.84 .16 124.02 .16 127.8 3.15 145.44 20.95 133.79"/>
    <polygon class="cls-8" points="138.89 228.59 121.1 240.24 117.48 261.19 135.27 249.53 138.89 228.59"/>
    <polygon class="cls-8" points="20.95 51.59 3.15 63.24 .16 80.88 .16 83.87 17.48 72.69 20.95 51.59"/>
    <polygon class="cls-3" points="217.16 347.95 199.36 359.45 189.13 378.19 206.92 366.54 217.16 347.95"/>
    <polygon class="cls-2" points="273.53 430.63 255.74 442.28 240.15 456.61 257.94 445.12 273.53 430.63"/>
    <polygon class="cls-2" points="254.17 439.13 236.37 450.79 255.74 442.28 273.53 430.63 254.17 439.13"/>
    <polygon class="cls-3" points="138.89 228.59 117.63 230.32 99.84 241.97 121.1 240.24 138.89 228.59"/>
    <polygon class="cls-8" points="254.17 439.13 233.54 433.94 215.74 445.59 236.37 450.79 254.17 439.13"/>
    <polygon class="cls-8" points="63.62 198.98 45.83 210.64 66.46 215.83 84.25 204.34 63.62 198.98"/>
    <polygon class="cls-5" points="215.74 422.28 197.95 433.94 215.74 445.59 233.54 433.94 215.74 422.28"/>
    <polygon class="cls-5" points="102.04 215.83 84.25 204.34 66.46 215.83 84.25 227.49 102.04 215.83"/>
    <polygon class="cls-4" points="175.9 281.18 162.83 264.34 145.04 275.99 158.11 292.84 175.9 281.18"/>
    <polygon class="cls-4" points="20.95 133.79 3.15 145.44 16.22 162.13 34.02 150.64 20.95 133.79"/>
    <polygon class="cls-7" points="155.9 244.34 138.11 255.99 145.04 275.99 162.83 264.34 155.9 244.34"/>
    <polygon class="cls-7" points="10.55 92.69 .16 99.46 .16 124.02 17.48 112.84 10.55 92.69"/>
    <polygon class="cls-7" points="335.42 217.25 353.22 205.6 332.59 210.79 314.79 222.45 335.42 217.25"/>
    <polygon class="cls-1" points="364.56 311.42 385.81 313.31 403.61 301.66 382.35 299.92 364.56 311.42"/>
    <polygon class="cls-6" points="283.14 122.29 263.61 113.63 245.82 125.28 265.35 133.79 283.14 122.29"/>
    <polygon class="cls-6" points="409.12 327.64 426.92 315.99 407.39 307.48 389.59 319.14 409.12 327.64"/>
    <polygon class="cls-7" points="361.88 240.08 346.29 225.75 328.49 237.25 344.08 251.74 361.88 240.08"/>
    <polyline class="cls-7" points="500.61 424.96 485.02 410.63 467.23 422.12 482.82 436.61 500.61 424.96"/>
    <polygon class="cls-4" points="344.08 251.74 354.16 270.48 371.96 258.82 361.88 240.08 344.08 251.74"/>
    <polygon class="cls-4" points="467.23 422.12 485.02 410.63 474.79 391.89 456.99 403.54 467.23 422.12"/>
    <polygon class="cls-5" points="364.56 311.42 382.35 299.92 378.89 278.82 361.09 290.48 364.56 311.42"/>
    <polygon class="cls-5" points="267.08 92.69 263.61 71.74 245.82 83.4 249.28 104.34 267.08 92.69"/>
    <polygon class="cls-8" points="405.66 348.58 423.45 336.93 426.92 315.99 409.12 327.64 405.66 348.58"/>
    <polygon class="cls-8" points="245.82 125.28 263.61 113.63 267.08 92.69 249.28 104.34 245.82 125.28"/>
    <polygon class="cls-3" points="332.59 210.79 342.67 192.05 324.87 203.71 314.79 222.45 332.59 210.79"/>
    <polygon class="cls-2" points="370.07 327.64 387.86 315.99 403.61 301.66 385.81 313.31 370.07 327.64"/>
    <polygon class="cls-2" points="389.59 319.14 407.39 307.48 387.86 315.99 370.07 327.64 389.59 319.14"/>
    <polygon class="cls-3" points="285.82 193.94 307.08 192.05 324.87 180.56 303.61 182.29 285.82 193.94"/>
    <polygon class="cls-8" points="285.82 139.14 303.61 127.49 283.14 122.29 265.35 133.79 285.82 139.14"/>
    <polygon class="cls-8" points="439.2 370.63 456.99 358.98 436.36 353.78 418.57 365.43 439.2 370.63"/>
    <polygon class="cls-5" points="324.87 203.71 342.67 192.05 324.87 180.56 307.08 192.05 324.87 203.71"/>
    <polygon class="cls-5" points="456.99 403.54 474.79 391.89 456.99 380.24 439.2 391.89 456.99 403.54"/>
    <polygon class="cls-4" points="405.66 348.58 418.57 365.43 436.36 353.78 423.45 336.93 405.66 348.58"/>
    <polygon class="cls-4" points="316.68 165.44 303.61 148.75 285.82 160.4 298.89 177.09 316.68 165.44"/>
    <polyline class="cls-7" points="500.61 424.96 482.82 436.61 489.75 456.61 507.54 445.12"/>
    <polygon class="cls-7" points="354.16 270.48 361.09 290.48 378.89 278.82 371.96 258.82 354.16 270.48"/>
    <polygon class="cls-7" points=".16 409.84 .16 410.94 3.15 410.16 .16 409.84"/>
    <polygon class="cls-7" points="3.15 410.16 .16 410.94 .16 432.2 13.23 428.9 3.15 410.16"/>
    <polygon class="cls-7" points="147.24 425.43 125.98 423.7 105.35 428.9 126.61 430.63 147.24 425.43"/>
    <polygon class="cls-1" points="90.55 27.81 71.18 19.15 50.55 24.34 70.08 33 90.55 27.81"/>
    <polygon class="cls-1" points="147.24 425.43 126.61 430.63 145.98 439.13 166.61 433.94 147.24 425.43"/>
    <polygon class="cls-6" points="143.78 208.9 123.15 214.1 138.89 228.59 159.37 223.39 143.78 208.9"/>
    <polygon class="cls-6" points="182.36 448.42 166.61 433.94 145.98 439.13 161.73 453.62 182.36 448.42"/>
    <polygon class="cls-7" points="148.5 330.47 127.87 335.83 138.11 354.41 158.74 349.21 148.5 330.47"/>
    <polygon class="cls-7" points="121.1 130.48 100.47 135.68 110.55 154.42 131.18 149.22 121.1 130.48"/>
    <polygon class="cls-4" points="161.57 313.78 158.11 292.84 137.48 298.03 140.94 318.98 161.57 313.78"/>
    <polygon class="cls-4" points="121.1 130.48 117.63 109.54 97.01 114.73 100.47 135.68 121.1 130.48"/>
    <polygon class="cls-5" points="155.9 244.34 159.37 223.39 138.89 228.59 135.27 249.53 155.9 244.34"/>
    <polygon class="cls-5" points="87.08 59.15 107.71 53.95 111.18 33 90.55 38.2 87.08 59.15"/>
    <polygon class="cls-8" points="138.11 354.41 127.87 373.15 148.5 367.95 158.74 349.21 138.11 354.41"/>
    <polygon class="cls-8" points="97.64 72.69 107.71 53.95 87.08 59.15 77.01 77.88 97.64 72.69"/>
    <polygon class="cls-3" points="148.5 367.95 127.87 373.15 112.28 387.48 132.91 382.28 148.5 367.95"/>
    <polygon class="cls-2" points="124.25 169.22 103.62 174.42 84.25 183.08 104.88 177.72 124.25 169.22"/>
    <polygon class="cls-2" points="125.98 175.99 104.88 177.72 84.25 183.08 105.35 181.19 125.98 175.99"/>
    <polygon class="cls-3" points="70.08 33 90.55 38.2 111.18 33 90.55 27.81 70.08 33"/>
    <polygon class="cls-8" points="125.98 175.99 105.35 181.19 123.15 192.84 143.78 187.64 125.98 175.99"/>
    <polygon class="cls-5" points="158.11 292.84 145.04 275.99 124.41 281.18 137.48 298.03 158.11 292.84"/>
    <polygon class="cls-5" points="110.71 89.38 97.64 72.69 77.01 77.88 90.08 94.58 110.71 89.38"/>
    <polygon class="cls-4" points="145.04 275.99 138.11 255.99 117.48 261.19 124.41 281.18 145.04 275.99"/>
    <polygon class="cls-4" points="97.01 114.73 117.63 109.54 110.71 89.38 90.08 94.58 97.01 114.73"/>
    <polygon class="cls-7" points="345.97 353.78 366.6 348.58 345.5 346.85 324.87 352.05 345.97 353.78"/>
    <polygon class="cls-1" points="359.04 391.89 378.57 400.39 399.2 395.2 379.67 386.69 359.04 391.89"/>
    <polygon class="cls-6" points="317.94 261.19 333.53 275.67 354.16 270.48 338.57 255.99 317.94 261.19"/>
    <polygon class="cls-7" points="317.94 261.19 338.57 255.99 328.49 237.25 307.86 242.6 317.94 261.19"/>
    <polygon class="cls-7" points="388.65 419.13 409.28 413.94 399.2 395.2 378.57 400.39 388.65 419.13"/>
    <polygon class="cls-4" points="348.97 325.91 345.5 304.96 324.87 310.16 328.34 331.1 348.97 325.91"/>
    <polygon class="cls-5" points="324.87 352.05 345.5 346.85 348.97 325.91 328.34 331.1 324.87 352.05"/>
    <polygon class="cls-5" points="324.24 122.29 327.71 101.19 307.23 106.55 303.61 127.49 324.24 122.29"/>
    <polygon class="cls-8" points="332.59 210.79 353.22 205.6 363.3 186.86 342.67 192.05 332.59 210.79"/>
    <polygon class="cls-3" points="324.87 310.16 345.5 304.96 361.09 290.48 340.46 295.67 324.87 310.16"/>
    <polygon class="cls-2" points="345.5 120.4 324.24 122.29 303.61 127.49 324.87 125.76 345.5 120.4"/>
    <polygon class="cls-8" points="363.3 186.86 345.5 175.2 324.87 180.56 342.67 192.05 363.3 186.86"/>
    <polygon class="cls-5" points="345.97 375.04 359.04 391.89 379.67 386.69 366.6 369.84 345.97 375.04"/>
    <polygon class="cls-5" points="337.94 142.45 358.57 137.25 345.5 120.4 324.87 125.76 337.94 142.45"/>
    <polygon class="cls-4" points="388.65 419.13 395.58 439.13 416.21 433.94 409.28 413.94 388.65 419.13"/>
    <polygon class="cls-4" points="340.46 295.67 361.09 290.48 354.16 270.48 333.53 275.67 340.46 295.67"/>
    <polygon class="cls-4" points=".16 63.08 .16 80.88 3.15 63.24 .16 63.08"/>
    <polygon class="cls-8" points=".16 145.13 .16 148.12 3.15 145.44 .16 145.13"/>
    <polygon class="cls-3" points=".16 408.27 .16 409.84 3.15 410.16 .16 408.27"/>
    <polygon class="cls-8" points=".16 197.41 .16 197.88 .63 197.88 .16 197.41"/>
    <polygon class="cls-5" points=".16 357.09 .16 365.43 3.15 365.59 .16 357.09"/>
    <polygon class="cls-5" points=".16 136.78 .16 145.13 3.15 145.44 .16 136.78"/>
    <polygon class="cls-7" points="145.98 439.13 126.61 430.63 105.35 428.9 124.88 437.4 145.98 439.13"/>
    <polygon class="cls-1" points="208.97 95.99 230.23 97.73 214.48 83.4 193.38 81.66 208.97 95.99"/>
    <polygon class="cls-1" points="145.98 439.13 124.88 437.4 140.47 451.89 161.73 453.62 145.98 439.13"/>
    <polygon class="cls-6" points="210.7 322.6 200.62 303.86 179.36 302.13 189.44 320.87 210.7 322.6"/>
    <polygon class="cls-6" points="230.23 68.91 219.99 50.33 198.89 48.59 208.97 67.18 230.23 68.91"/>
    <polygon class="cls-7" points="200.62 303.86 197.16 282.92 175.9 281.18 179.36 302.13 200.62 303.86"/>
    <polygon class="cls-7" points="195.9 154.73 217.16 156.46 213.54 135.52 192.44 133.79 195.9 154.73"/>
    <polygon class="cls-4" points="200.62 261.97 179.36 260.24 175.9 281.18 197.16 282.92 200.62 261.97"/>
    <polygon class="cls-4" points="213.54 135.52 217.16 114.58 195.9 112.84 192.44 133.79 213.54 135.52"/>
    <polygon class="cls-5" points="179.84 350.95 158.74 349.21 148.5 367.95 169.76 369.69 179.84 350.95"/>
    <polygon class="cls-5" points="185.82 173.47 206.92 175.2 217.16 156.46 195.9 154.73 185.82 173.47"/>
    <polygon class="cls-8" points="148.5 367.95 132.91 382.28 154.01 384.02 169.76 369.69 148.5 367.95"/>
    <polygon class="cls-8" points="193.38 81.66 214.48 83.4 230.23 68.91 208.97 67.18 193.38 81.66"/>
    <polygon class="cls-3" points="219.99 253.47 198.89 251.74 179.36 260.24 200.62 261.97 219.99 253.47"/>
    <polygon class="cls-8" points="191.96 231.58 213.22 233.31 200.15 216.46 178.89 214.73 191.96 231.58"/>
    <polygon class="cls-5" points="219.99 253.47 213.22 233.31 191.96 231.58 198.89 251.74 219.99 253.47"/>
    <polygon class="cls-5" points="219.99 50.33 213.22 30.17 191.96 28.44 198.89 48.59 219.99 50.33"/>
    <polygon class="cls-7" points="357.31 398.66 378.57 400.39 359.04 391.89 337.94 390.16 357.31 398.66"/>
    <polygon class="cls-6" points="442.66 196.46 432.58 177.72 411.48 175.99 421.56 194.73 442.66 196.46"/>
    <polygon class="cls-6" points="357.31 438.82 367.55 457.56 388.65 459.29 378.57 440.55 357.31 438.82"/>
    <polygon class="cls-7" points="403.61 301.66 400.14 280.71 378.89 278.82 382.35 299.92 403.61 301.66"/>
    <polygon class="cls-4" points="345.5 346.85 366.6 348.58 370.07 327.64 348.97 325.91 345.5 346.85"/>
    <polygon class="cls-5" points="419.51 272.05 429.59 253.47 408.49 251.74 398.41 270.32 419.51 272.05"/>
    <polygon class="cls-8" points="370.07 327.64 385.81 313.31 364.56 311.42 348.97 325.91 370.07 327.64"/>
    <polygon class="cls-3" points="378.89 278.82 400.14 280.71 419.51 272.05 398.41 270.32 378.89 278.82"/>
    <polygon class="cls-8" points="324.87 373.31 337.94 390.16 359.04 391.89 345.97 375.04 324.87 373.31"/>
    <polygon class="cls-5" points="364.24 418.82 385.5 420.55 378.57 400.39 357.31 398.66 364.24 418.82"/>
    <polygon class="cls-5" points="428.49 214.73 449.59 216.46 442.66 196.46 421.56 194.73 428.49 214.73"/>
    <polygon class="cls-7" points=".16 304.96 .16 310.79 12.28 315.99 .16 304.96"/>
    <polygon class="cls-3" points="45.83 189.38 35.75 170.79 16.22 162.13 26.3 180.87 45.83 189.38"/>
    <polygon class="cls-6" points="60.31 138.98 56.85 118.04 37.48 109.54 40.94 130.48 60.31 138.98"/>
    <polygon class="cls-7" points="6.93 260.56 .16 257.56 .16 280.08 3.47 281.5 6.93 260.56"/>
    <polygon class="cls-7" points="59.84 51.59 40.47 43.08 37.01 64.03 56.38 72.69 59.84 51.59"/>
    <polygon class="cls-4" points="17.17 241.82 .16 234.41 .16 257.56 6.93 260.56 17.17 241.82"/>
    <polygon class="cls-4" points="59.84 51.59 70.08 33 50.55 24.34 40.47 43.08 59.84 51.59"/>
    <polygon class="cls-5" points="26.3 202.13 10.71 216.46 30.24 225.12 45.83 210.64 26.3 202.13"/>
    <polygon class="cls-8" points="56.38 72.69 37.01 64.03 17.48 72.69 37.01 81.19 56.38 72.69"/>
    <polygon class="cls-8" points=".16 310.79 .16 321.34 12.28 315.99 .16 310.79"/>
    <polygon class="cls-2" points="111.18 33 91.81 24.34 71.18 19.15 90.55 27.81 111.18 33"/>
    <polygon class="cls-3" points="49.92 97.88 37.01 81.19 17.48 72.69 30.55 89.38 49.92 97.88"/>
    <polygon class="cls-8" points="49.92 97.88 30.55 89.38 37.48 109.54 56.85 118.04 49.92 97.88"/>
    <polygon class="cls-7" points="124.88 437.4 105.35 428.9 121.1 443.23 140.47 451.89 124.88 437.4"/>
    <polygon class="cls-1" points="249.6 280.71 239.52 261.97 219.99 253.47 230.23 272.05 249.6 280.71"/>
    <polygon class="cls-6" points="249.6 322.6 246.13 301.66 226.61 293.15 230.23 314.1 249.6 322.6"/>
    <polygon class="cls-7" points="249.6 280.71 230.23 272.05 226.61 293.15 246.13 301.66 249.6 280.71"/>
    <polygon class="cls-7" points="283.14 122.29 286.61 101.19 267.08 92.69 263.61 113.63 283.14 122.29"/>
    <polygon class="cls-4" points="179.84 350.95 169.76 369.69 189.13 378.19 199.36 359.45 179.84 350.95"/>
    <polygon class="cls-4" points="236.53 186.23 217.16 177.72 206.92 196.46 226.45 204.97 236.53 186.23"/>
    <polygon class="cls-5" points="189.13 378.19 169.76 369.69 154.01 384.02 173.54 392.68 189.13 378.19"/>
    <polygon class="cls-5" points="252.28 150.64 232.75 142.13 217.16 156.46 236.53 164.97 252.28 150.64"/>
    <polygon class="cls-8" points="210.7 322.6 230.23 331.1 249.6 322.6 230.23 314.1 210.7 322.6"/>
    <polygon class="cls-3" points="140.47 451.89 121.1 443.23 99.84 445.12 119.37 453.62 140.47 451.89"/>
    <polygon class="cls-2" points="307.23 106.55 287.71 97.88 267.08 92.69 286.61 101.19 307.23 106.55"/>
    <polygon class="cls-3" points="232.59 241.82 219.52 225.12 200.15 216.46 213.22 233.31 232.59 241.82"/>
    <polygon class="cls-8" points="239.52 261.97 232.59 241.82 213.22 233.31 219.99 253.47 239.52 261.97"/>
    <polygon class="cls-1" points="348.02 449.05 367.55 457.56 357.31 438.82 337.94 430.31 348.02 449.05"/>
    <polygon class="cls-6" points="465.65 266.22 462.19 245.12 442.66 236.62 446.29 257.56 465.65 266.22"/>
    <polygon class="cls-7" points="386.13 357.09 389.59 336.14 370.07 327.64 366.6 348.58 386.13 357.09"/>
    <polygon class="cls-4" points="436.05 276.3 455.58 284.81 465.65 266.22 446.29 257.56 436.05 276.3"/>
    <polygon class="cls-5" points="426.92 315.99 442.51 301.66 422.98 293.15 407.39 307.48 426.92 315.99"/>
    <polygon class="cls-8" points="409.12 327.64 389.59 319.14 370.07 327.64 389.59 336.14 409.12 327.64"/>
    <polygon class="cls-3" points="379.67 365.43 399.2 373.94 386.13 357.09 366.6 348.58 379.67 365.43"/>
    <polygon class="cls-8" points="364.24 418.82 357.31 398.66 337.94 390.16 344.87 410.16 364.24 418.82"/>
    <polygon class="cls-7" points="219.99 50.33 230.23 68.91 245.82 83.4 235.74 64.66 219.99 50.33"/>
    <polygon class="cls-1" points="195.9 154.73 192.44 133.79 176.85 119.3 180.31 140.4 195.9 154.73"/>
    <polygon class="cls-6" points="6.93 260.56 3.47 281.5 19.21 295.99 22.68 274.89 6.93 260.56"/>
    <polygon class="cls-6" points="192.44 133.79 195.9 112.84 180.31 98.36 176.85 119.3 192.44 133.79"/>
    <polygon class="cls-7" points="32.76 256.3 17.17 241.82 6.93 260.56 22.68 274.89 32.76 256.3"/>
    <polygon class="cls-7" points="170.23 158.98 185.82 173.47 195.9 154.73 180.31 140.4 170.23 158.98"/>
    <polygon class="cls-4" points="82.05 230.32 66.46 215.83 50.71 230.32 66.46 244.65 82.05 230.32"/>
    <polygon class="cls-4" points="214.48 83.4 230.23 97.73 245.82 83.4 230.23 68.91 214.48 83.4"/>
    <polygon class="cls-5" points="159.37 202.13 178.89 193.47 163.3 179.14 143.78 187.64 159.37 202.13"/>
    <polygon class="cls-8" points="138.89 228.59 123.15 214.1 102.04 215.83 117.63 230.32 138.89 228.59"/>
    <polygon class="cls-3" points="53.38 261.5 37.79 247.01 17.17 241.82 32.76 256.3 53.38 261.5"/>
    <polygon class="cls-2" points="99.84 241.97 84.25 227.49 66.46 215.83 82.05 230.32 99.84 241.97"/>
    <polygon class="cls-3" points="235.74 64.66 228.81 44.5 213.22 30.17 219.99 50.33 235.74 64.66"/>
    <polygon class="cls-7" points="328.49 237.25 338.57 255.99 354.16 270.48 344.08 251.74 328.49 237.25"/>
    <polygon class="cls-1" points="307.23 332.84 303.61 311.89 288.02 297.56 291.49 318.51 307.23 332.84"/>
    <polygon class="cls-6" points="288.02 339.45 303.61 353.78 307.23 332.84 291.49 318.51 288.02 339.45"/>
    <polygon class="cls-7" points="217.16 369.21 206.92 387.8 222.67 402.28 232.75 383.54 217.16 369.21"/>
    <polygon class="cls-7" points="368.81 219.93 378.89 201.35 363.3 186.86 353.22 205.6 368.81 219.93"/>
    <polygon class="cls-4" points="182.36 419.61 166.61 433.94 182.36 448.42 197.95 433.94 182.36 419.61"/>
    <polygon class="cls-4" points="317.94 290 333.53 275.67 317.94 261.19 302.35 275.67 317.94 290"/>
    <polygon class="cls-5" points="252.28 353.78 236.53 339.29 217.16 347.95 232.75 362.28 252.28 353.78"/>
    <polygon class="cls-5" points="391.96 184.5 411.48 175.99 395.74 161.66 376.37 170.16 391.96 184.5"/>
    <polygon class="cls-8" points="121.1 443.23 105.35 428.9 84.25 430.63 99.84 445.12 121.1 443.23"/>
    <polygon class="cls-8" points="288.02 297.56 303.61 311.89 324.87 310.16 309.28 295.67 288.02 297.56"/>
    <polygon class="cls-3" points="285.82 342.13 270.23 327.8 249.6 322.6 265.35 336.93 285.82 342.13"/>
    <polygon class="cls-2" points="285.82 342.13 303.61 353.78 288.02 339.45 270.23 327.8 285.82 342.13"/>
    <polygon class="cls-3" points="302.35 275.67 309.28 295.67 324.87 310.16 317.94 290 302.35 275.67"/>
    <polyline class="cls-7" points="500.61 424.96 490.54 406.22 474.79 391.89 485.02 410.63 500.61 424.96"/>
    <polyline class="cls-4" points="506.13 391.89 490.54 377.4 474.79 391.89 490.54 406.22 506.13 391.89"/>
    <polygon class="cls-5" points="463.29 445.12 482.82 436.61 467.23 422.12 447.7 430.79 463.29 445.12"/>
    <polygon class="cls-2" points="431.8 448.42 449.59 460.08 434 445.59 416.21 433.94 431.8 448.42"/>
    <polygon class="cls-7" points="230.23 314.1 226.61 293.15 216.53 274.41 219.99 295.36 230.23 314.1"/>
    <polygon class="cls-1" points="226.61 293.15 230.23 272.05 219.99 253.47 216.53 274.41 226.61 293.15"/>
    <polygon class="cls-6" points="112.28 350.16 102.2 368.9 112.28 387.48 122.36 368.9 112.28 350.16"/>
    <polygon class="cls-6" points="378.89 238.67 388.96 219.93 378.89 201.35 368.81 219.93 378.89 238.67"/>
    <polygon class="cls-7" points="138.11 354.41 127.87 335.83 112.28 350.16 122.36 368.9 138.11 354.41"/>
    <polygon class="cls-7" points="292.27 256.93 302.35 275.67 317.94 261.19 307.86 242.6 292.27 256.93"/>
    <polygon class="cls-4" points="230.23 314.1 219.99 295.36 200.62 303.86 210.7 322.6 230.23 314.1"/>
    <polygon class="cls-4" points="50.55 408.74 40.47 390 20.95 398.5 31.02 417.24 50.55 408.74"/>
    <polygon class="cls-4" points="402.03 203.23 421.56 194.73 411.48 175.99 391.96 184.5 402.03 203.23"/>
    <polygon class="cls-5" points="112.28 387.48 102.2 368.9 80.94 370.63 91.18 389.37 112.28 387.48"/>
    <polygon class="cls-5" points="281.09 277.41 302.35 275.67 292.27 256.93 271.02 258.67 281.09 277.41"/>
    <polygon class="cls-8" points="270.23 285.91 260.15 267.17 239.52 261.97 249.6 280.71 270.23 285.91"/>
    <polygon class="cls-8" points="61.1 395.2 40.47 390 50.55 408.74 71.18 413.94 61.1 395.2"/>
    <polygon class="cls-3" points="281.09 277.41 271.02 258.67 253.22 247.01 263.3 265.75 281.09 277.41"/>
    <polygon class="cls-2" points="61.1 395.2 71.18 413.94 84.25 430.63 74.17 411.89 61.1 395.2"/>
    <polygon class="cls-2" points="270.23 285.91 263.3 265.75 253.22 247.01 260.15 267.17 270.23 285.91"/>
    <polyline class="cls-7" points="506.13 391.89 490.54 406.22 500.61 424.96"/>
    <polygon class="cls-4" points="437.62 412.05 447.7 430.79 467.23 422.12 456.99 403.54 437.62 412.05"/>
    <polygon class="cls-8" points="429.91 419.13 419.83 400.39 399.2 395.2 409.28 413.94 429.91 419.13"/>
    <polygon class="cls-3" points="429.91 419.13 447.7 430.79 437.62 412.05 419.83 400.39 429.91 419.13"/>
    <polygon class="cls-2" points="395.58 439.13 388.65 419.13 378.57 400.39 385.5 420.55 395.58 439.13"/>
    <polygon class="cls-7" points="152.44 147.33 148.81 126.39 138.74 107.8 142.2 128.75 152.44 147.33"/>
    <polygon class="cls-1" points="176.85 119.3 180.31 98.36 170.23 79.77 166.61 100.72 176.85 119.3"/>
    <polygon class="cls-6" points="148.81 126.39 159.05 107.8 148.81 89.07 138.74 107.8 148.81 126.39"/>
    <polygon class="cls-7" points="16.22 183.39 .63 197.88 10.71 216.46 26.3 202.13 16.22 183.39"/>
    <polygon class="cls-7" points="208.97 67.18 198.89 48.59 183.14 62.92 193.38 81.66 208.97 67.18"/>
    <polygon class="cls-4" points="110.55 154.42 100.47 135.68 80.94 144.18 91.18 162.92 110.55 154.42"/>
    <polygon class="cls-5" points="152.44 147.33 142.2 128.75 121.1 130.48 131.18 149.22 152.44 147.33"/>
    <polygon class="cls-8" points="84.25 183.08 74.17 164.34 53.54 159.14 63.62 177.72 84.25 183.08"/>
    <polygon class="cls-3" points="176.85 119.3 166.61 100.72 148.81 89.07 159.05 107.8 176.85 119.3"/>
    <polygon class="cls-2" points="245.82 83.4 238.89 63.24 228.81 44.5 235.74 64.66 245.82 83.4"/>
    <polygon class="cls-7" points="249.6 322.6 253.06 301.66 249.6 280.71 246.13 301.66 249.6 322.6"/>
    <polygon class="cls-1" points="74.49 314.1 64.41 332.84 67.87 353.78 78.11 335.2 74.49 314.1"/>
    <polygon class="cls-1" points="436.05 276.3 446.29 257.56 442.66 236.62 432.58 255.36 436.05 276.3"/>
    <polygon class="cls-6" points="111.34 298.03 95.75 312.36 99.21 333.31 114.96 318.98 111.34 298.03"/>
    <polygon class="cls-6" points="348.97 325.91 364.56 311.42 361.09 290.48 345.5 304.96 348.97 325.91"/>
    <polygon class="cls-7" points="216.53 274.41 197.16 282.92 200.62 303.86 219.99 295.36 216.53 274.41"/>
    <polygon class="cls-7" points="12.28 315.99 .16 321.34 .16 343.86 15.75 336.93 12.28 315.99"/>
    <polygon class="cls-7" points="403.61 301.66 422.98 293.15 419.51 272.05 400.14 280.71 403.61 301.66"/>
    <polygon class="cls-4" points="99.21 333.31 95.75 312.36 74.49 314.1 78.11 335.2 99.21 333.31"/>
    <polygon class="cls-4" points="307.23 332.84 328.34 331.1 324.87 310.16 303.61 311.89 307.23 332.84"/>
    <polygon class="cls-5" points="253.06 301.66 273.69 306.85 270.23 285.91 249.6 280.71 253.06 301.66"/>
    <polygon class="cls-5" points="50.71 332.84 30.08 327.64 33.54 348.58 54.17 353.78 50.71 332.84"/>
    <polygon class="cls-8" points="273.69 306.85 291.49 318.51 288.02 297.56 270.23 285.91 273.69 306.85"/>
    <polygon class="cls-8" points="30.08 327.64 12.28 315.99 15.75 336.93 33.54 348.58 30.08 327.64"/>
    <polygon class="cls-3" points="127.87 335.83 124.41 314.73 111.34 298.03 114.96 318.98 127.87 335.83"/>
    <polygon class="cls-2" points="67.87 353.78 64.41 332.84 57.48 312.68 61.1 333.78 67.87 353.78"/>
    <polygon class="cls-7" points="245.82 125.28 249.28 104.34 245.82 83.4 242.35 104.34 245.82 125.28"/>
    <polygon class="cls-1" points="162.52 128.75 159.05 107.8 148.81 126.39 152.44 147.33 162.52 128.75"/>
    <polygon class="cls-6" points="245.82 125.28 242.35 104.34 226.61 118.67 230.23 139.77 245.82 125.28"/>
    <polygon class="cls-7" points="97.01 114.73 77.48 123.24 80.94 144.18 100.47 135.68 97.01 114.73"/>
    <polygon class="cls-4" points="142.2 128.75 138.74 107.8 117.63 109.54 121.1 130.48 142.2 128.75"/>
    <polygon class="cls-5" points="56.85 118.04 60.31 138.98 80.94 144.18 77.48 123.24 56.85 118.04"/>
    <polygon class="cls-8" points="180.31 140.4 176.85 119.3 159.05 107.8 162.52 128.75 180.31 140.4"/>
    <polygon class="cls-3" points="30.55 129.54 17.48 112.84 20.95 133.79 34.02 150.64 30.55 129.54"/>
    <polygon class="cls-2" points=".16 127.8 .16 136.78 3.15 145.44 .16 127.8"/>
    <polygon class="cls-7" points="32.76 256.3 22.68 274.89 19.21 295.99 29.29 277.25 32.76 256.3"/>
    <polygon class="cls-1" points="86.77 258.67 71.18 273.15 67.72 294.1 83.31 279.61 86.77 258.67"/>
    <polygon class="cls-1" points="423.45 336.93 439.04 322.6 442.51 301.66 426.92 315.99 423.45 336.93"/>
    <polygon class="cls-6" points="197.16 282.92 216.53 274.41 219.99 253.47 200.62 261.97 197.16 282.92"/>
    <polygon class="cls-6" points="389.59 336.14 386.13 357.09 405.66 348.58 409.12 327.64 389.59 336.14"/>
    <polygon class="cls-7" points="117.48 261.19 121.1 240.24 99.84 241.97 96.38 262.92 117.48 261.19"/>
    <polygon class="cls-7" points="324.87 352.05 328.34 331.1 307.23 332.84 303.61 353.78 324.87 352.05"/>
    <polygon class="cls-4" points="249.6 322.6 270.23 327.8 273.69 306.85 253.06 301.66 249.6 322.6"/>
    <polygon class="cls-4" points="53.38 261.5 32.76 256.3 29.29 277.25 49.92 282.44 53.38 261.5"/>
    <polygon class="cls-4" points="452.11 339.29 472.74 344.65 476.21 323.55 455.58 318.35 452.11 339.29"/>
    <polygon class="cls-5" points="288.02 339.45 291.49 318.51 273.69 306.85 270.23 327.8 288.02 339.45"/>
    <polygon class="cls-5" points="67.72 294.1 71.18 273.15 53.38 261.5 49.92 282.44 67.72 294.1"/>
    <polygon class="cls-8" points="452.11 339.29 455.58 318.35 442.51 301.66 439.04 322.6 452.11 339.29"/>
    <polygon class="cls-8" points="172.44 240.08 159.37 223.39 155.9 244.34 168.97 261.03 172.44 240.08"/>
    <polygon class="cls-3" points="172.44 240.08 168.97 261.03 175.9 281.18 179.36 260.24 172.44 240.08"/>
    <polygon class="cls-7" points="77.01 77.88 87.08 59.15 90.55 38.2 80.47 56.94 77.01 77.88"/>
    <polygon class="cls-1" points="226.61 118.67 242.35 104.34 245.82 83.4 230.23 97.73 226.61 118.67"/>
    <polygon class="cls-6" points="37.01 64.03 40.47 43.08 20.95 51.59 17.48 72.69 37.01 64.03"/>
    <polygon class="cls-6" points="364.87 111.9 368.49 90.96 348.97 99.46 345.5 120.4 364.87 111.9"/>
    <polygon class="cls-7" points="145.51 47.96 124.25 49.7 120.78 70.64 142.04 68.91 145.51 47.96"/>
    <polygon class="cls-7" points="345.5 120.4 348.97 99.46 327.71 101.19 324.24 122.29 345.5 120.4"/>
    <polygon class="cls-4" points="283.14 122.29 303.61 127.49 307.23 106.55 286.61 101.19 283.14 122.29"/>
    <polygon class="cls-4" points="77.01 77.88 80.47 56.94 59.84 51.59 56.38 72.69 77.01 77.88"/>
    <polygon class="cls-5" points="170.23 79.77 152.44 68.12 148.81 89.07 166.61 100.72 170.23 79.77"/>
    <polygon class="cls-8" points="120.78 70.64 124.25 49.7 111.18 33 107.71 53.95 120.78 70.64"/>
    <polygon class="cls-3" points="148.81 89.07 152.44 68.12 145.51 47.96 142.04 68.91 148.81 89.07"/>
    <polygon class="cls-7" points="138.11 354.41 122.36 368.9 112.28 387.48 127.87 373.15 138.11 354.41"/>
    <polygon class="cls-1" points="252.28 375.04 232.75 383.54 222.67 402.28 242.04 393.78 252.28 375.04"/>
    <polygon class="cls-6" points="112.28 350.16 91.18 351.89 80.94 370.63 102.2 368.9 112.28 350.16"/>
    <polygon class="cls-6" points="320.93 428.9 331.01 410.16 309.75 411.89 299.68 430.63 320.93 428.9"/>
    <polygon class="cls-7" points="259.83 405.28 280.46 410.63 290.54 391.89 270.07 386.69 259.83 405.28"/>
    <polygon class="cls-7" points="67.72 294.1 47.09 288.9 37.01 307.48 57.48 312.68 67.72 294.1"/>
    <polygon class="cls-4" points="259.83 405.28 270.07 386.69 252.28 375.04 242.04 393.78 259.83 405.28"/>
    <polygon class="cls-4" points="47.09 288.9 29.29 277.25 19.21 295.99 37.01 307.48 47.09 288.9"/>
    <polygon class="cls-5" points="286.61 413.94 299.68 430.63 309.75 411.89 296.84 395.2 286.61 413.94"/>
    <polygon class="cls-5" points="78.11 335.2 67.87 353.78 80.94 370.63 91.18 351.89 78.11 335.2"/>
    <polygon class="cls-8" points="320.93 428.9 327.86 449.05 337.94 430.31 331.01 410.16 320.93 428.9"/>
    <polygon class="cls-8" points="74.49 314.1 67.72 294.1 57.48 312.68 64.41 332.84 74.49 314.1"/>
    <polygon class="cls-7" points="247.08 210.16 262.67 195.83 272.75 177.09 257.16 191.42 247.08 210.16"/>
    <polygon class="cls-1" points="50.55 24.34 31.02 33 20.95 51.59 40.47 43.08 50.55 24.34"/>
    <polygon class="cls-1" points="378.89 278.82 398.41 270.32 408.49 251.74 388.96 260.24 378.89 278.82"/>
    <polygon class="cls-6" points="131.81 87.65 142.04 68.91 120.78 70.64 110.71 89.38 131.81 87.65"/>
    <polygon class="cls-6" points="297 210.79 307.08 192.05 285.82 193.94 275.74 212.53 297 210.79"/>
    <polygon class="cls-7" points="247.08 210.16 257.16 191.42 236.53 186.23 226.45 204.97 247.08 210.16"/>
    <polygon class="cls-7" points="90.55 38.2 70.08 33 59.84 51.59 80.47 56.94 90.55 38.2"/>
    <polygon class="cls-4" points="314.79 222.45 324.87 203.71 307.08 192.05 297 210.79 314.79 222.45"/>
    <polygon class="cls-4" points="180.31 140.4 162.52 128.75 152.44 147.33 170.23 158.98 180.31 140.4"/>
    <polygon class="cls-5" points="275.74 212.53 285.82 193.94 272.75 177.09 262.67 195.83 275.74 212.53"/>
    <polygon class="cls-5" points="110.71 89.38 120.78 70.64 107.71 53.95 97.64 72.69 110.71 89.38"/>
    <polygon class="cls-8" points="385.81 258.82 395.89 240.08 388.96 219.93 378.89 238.67 385.81 258.82"/>
    <polygon class="cls-8" points="148.81 89.07 142.04 68.91 131.81 87.65 138.74 107.8 148.81 89.07"/>
    <polygon class="cls-1" points="111.34 298.03 90.23 299.77 74.49 314.1 95.75 312.36 111.34 298.03"/>
    <polygon class="cls-6" points="66.46 215.83 45.83 210.64 30.24 225.12 50.71 230.32 66.46 215.83"/>
    <polygon class="cls-7" points="215.74 445.59 197.95 433.94 182.36 448.42 200.15 460.08 215.74 445.59"/>
    <polygon class="cls-7" points="82.05 230.32 66.46 244.65 84.25 256.3 99.84 241.97 82.05 230.32"/>
    <polygon class="cls-4" points="257.94 445.12 271.02 461.81 286.61 447.48 273.53 430.63 257.94 445.12"/>
    <polygon class="cls-4" points="114.96 318.98 99.21 333.31 112.28 350.16 127.87 335.83 114.96 318.98"/>
    <polygon class="cls-4" points="16.22 162.13 3.15 145.44 .16 148.12 .16 176.15 .63 176.62 16.22 162.13"/>
    <polygon class="cls-5" points="90.23 299.77 83.31 279.61 67.72 294.1 74.49 314.1 90.23 299.77"/>
    <polygon class="cls-7" points="387.86 315.99 407.39 307.48 422.98 293.15 403.61 301.66 387.86 315.99"/>
    <polygon class="cls-1" points="271.02 258.67 292.27 256.93 307.86 242.6 286.61 244.34 271.02 258.67"/>
    <polygon class="cls-6" points="272.75 177.09 252.28 171.9 236.53 186.23 257.16 191.42 272.75 177.09"/>
    <polygon class="cls-6" points="436.36 353.78 456.99 358.98 472.74 344.65 452.11 339.29 436.36 353.78"/>
    <polygon class="cls-7" points="286.61 244.34 268.81 232.68 253.22 247.01 271.02 258.67 286.61 244.34"/>
    <polygon class="cls-7" points="176.37 42.77 191.96 28.44 174.17 16.78 158.58 31.27 176.37 42.77"/>
    <polygon class="cls-7" points="456.99 380.24 474.79 391.89 490.54 377.4 472.74 365.91 456.99 380.24"/>
    <polygon class="cls-4" points="423.45 336.93 436.36 353.78 452.11 339.29 439.04 322.6 423.45 336.93"/>
    <polygon class="cls-4" points="275.74 212.53 262.67 195.83 247.08 210.16 260.15 227.01 275.74 212.53"/>
    <polyline class="cls-4" points="161.1 .09 145.51 14.42 158.58 31.27 174.17 16.78 161.1 .09"/>
    <polygon class="cls-5" points="324.87 310.16 340.46 295.67 333.53 275.67 317.94 290 324.87 310.16"/>
    <polygon class="cls-5" points="183.14 62.92 198.89 48.59 191.96 28.44 176.37 42.77 183.14 62.92"/>
    <polygon class="cls-7" points="124.25 169.22 104.88 177.72 125.98 175.99 145.51 167.49 124.25 169.22"/>
    <polygon class="cls-1" points="253.06 425.43 233.54 433.94 254.17 439.13 273.53 430.63 253.06 425.43"/>
    <polygon class="cls-1" points="77.01 77.88 56.38 72.69 37.01 81.19 57.48 86.39 77.01 77.88"/>
    <polygon class="cls-6" points="259.83 405.28 242.04 393.78 222.67 402.28 240.47 413.94 259.83 405.28"/>
    <polygon class="cls-6" points="163.3 179.14 145.51 167.49 125.98 175.99 143.78 187.64 163.3 179.14"/>
    <polygon class="cls-7" points="191.96 231.58 178.89 214.73 159.37 223.39 172.44 240.08 191.96 231.58"/>
    <polygon class="cls-7" points="70.55 103.08 90.08 94.58 77.01 77.88 57.48 86.39 70.55 103.08"/>
    <polygon class="cls-4" points="179.36 260.24 198.89 251.74 191.96 231.58 172.44 240.08 179.36 260.24"/>
    <polygon class="cls-4" points="90.08 94.58 70.55 103.08 77.48 123.24 97.01 114.73 90.08 94.58"/>
    <polygon class="cls-1" points="71.18 413.94 50.55 408.74 31.02 417.24 51.65 422.44 71.18 413.94"/>
    <polygon class="cls-6" points="40.47 368.74 22.68 357.09 3.15 365.59 20.95 377.24 40.47 368.74"/>
    <polygon class="cls-7" points="71.18 413.94 51.65 422.44 64.72 439.13 84.25 430.63 71.18 413.94"/>
    <polygon class="cls-4" points="22.68 357.09 15.75 336.93 .16 343.86 .16 357.09 3.15 365.59 22.68 357.09"/>
    <polygon class="cls-1" points="399.2 395.2 419.83 400.39 439.2 391.89 418.57 386.69 399.2 395.2"/>
    <polygon class="cls-6" points="358.57 158.51 376.37 170.16 395.74 161.66 377.94 150.01 358.57 158.51"/>
    <polygon class="cls-6" points="437.62 412.05 456.99 403.54 439.2 391.89 419.83 400.39 437.62 412.05"/>
    <polygon class="cls-7" points="399.2 373.94 418.57 365.43 405.66 348.58 386.13 357.09 399.2 373.94"/>
    <polygon class="cls-7" points="358.57 137.25 377.94 128.75 364.87 111.9 345.5 120.4 358.57 137.25"/>
    <polygon class="cls-4" points="415.42 231.58 408.49 211.42 388.96 219.93 395.89 240.08 415.42 231.58"/>
    <polygon class="cls-1" points="123.15 192.84 105.35 181.19 84.25 183.08 102.04 194.57 123.15 192.84"/>
    <polygon class="cls-6" points="78.11 335.2 91.18 351.89 112.28 350.16 99.21 333.31 78.11 335.2"/>
    <polygon class="cls-6" points="145.51 47.96 132.44 31.27 111.18 33 124.25 49.7 145.51 47.96"/>
    <polygon class="cls-7" points="104.41 277.88 83.31 279.61 90.23 299.77 111.34 298.03 104.41 277.88"/>
    <polygon class="cls-7" points="138.74 107.8 131.81 87.65 110.71 89.38 117.63 109.54 138.74 107.8"/>
    <polygon class="cls-1" points="307.86 242.6 290.07 230.95 268.81 232.68 286.61 244.34 307.86 242.6"/>
    <polygon class="cls-6" points="316.68 391.89 337.94 390.16 324.87 373.31 303.61 375.04 316.68 391.89"/>
    <polygon class="cls-6" points="337.94 163.71 324.87 147.02 303.61 148.75 316.68 165.44 337.94 163.71"/>
    <polygon class="cls-7" points="306.6 450.79 327.86 449.05 320.93 428.9 299.68 430.63 306.6 450.79"/>
    <polygon class="cls-7" points="288.02 297.56 309.28 295.67 302.35 275.67 281.09 277.41 288.02 297.56"/>
    <polygon class="cls-7" points="265.35 336.93 283.14 348.58 303.61 353.78 285.82 342.13 265.35 336.93"/>
    <polygon class="cls-1" points="253.22 247.01 240.15 230.32 219.52 225.12 232.59 241.82 253.22 247.01"/>
    <polygon class="cls-6" points="260.15 267.17 253.22 247.01 232.59 241.82 239.52 261.97 260.15 267.17"/>
    <polygon class="cls-7" points="49.92 282.44 29.29 277.25 47.09 288.9 67.72 294.1 49.92 282.44"/>
    <polygon class="cls-1" points="31.02 417.24 44.09 433.94 64.72 439.13 51.65 422.44 31.02 417.24"/>
    <polygon class="cls-1" points="57.48 86.39 37.01 81.19 49.92 97.88 70.55 103.08 57.48 86.39"/>
    <polygon class="cls-6" points="54.17 353.78 33.54 348.58 40.47 368.74 61.1 373.94 54.17 353.78"/>
    <polygon class="cls-6" points="77.48 123.24 70.55 103.08 49.92 97.88 56.85 118.04 77.48 123.24"/>
    <polygon class="cls-7" points="416.21 433.94 434 445.59 454.63 450.79 436.84 439.13 416.21 433.94"/>
    <polygon class="cls-1" points="455.58 318.35 476.21 323.55 463.13 306.85 442.51 301.66 455.58 318.35"/>
    <polygon class="cls-6" points="416.21 433.94 436.84 439.13 429.91 419.13 409.28 413.94 416.21 433.94"/>
    <polygon class="cls-1" points="263.3 265.75 270.23 285.91 288.02 297.56 281.09 277.41 263.3 265.75"/>
    <polygon class="cls-1" points="33.54 348.58 15.75 336.93 22.68 357.09 40.47 368.74 33.54 348.58"/>
    <polygon class="cls-1" points="170.23 79.77 163.3 59.62 145.51 47.96 152.44 68.12 170.23 79.77"/>
    <polygon class="cls-1" points="436.84 439.13 454.63 450.79 447.7 430.79 429.91 419.13 436.84 439.13"/>
    <polygon class="cls-7" points="175.9 281.18 168.97 261.03 155.9 244.34 162.83 264.34 175.9 281.18"/>
    <polygon class="cls-7" points="37.48 109.54 30.55 89.38 17.48 72.69 24.41 92.69 37.48 109.54"/>
  </g>
</svg>